:SAMPLES-PER-SECOND 30
:FULLY-SPECIFIED
:DEGREES
306
root  84.3582 38.5696 1.3561 -78.2686 -86.8734 74.8848
RightUpLeg  5.94836 -9.61672 -6.19422
RightLeg  12.1118 2.48095 0.0609968
RightFoot  -16.1562 -0.119497 -0.251104
RightToes  -2.32831e-009 0 -3.6325e-017
Spine  7.84298 1.77108 11.7768
Spine1  5.19716 4.65505 -9.05448
HEad  -21.7974 24.8412 -10.6208
LeftShoulder1  -0.676729 5.31345 -31.2408
LeftArm  -0.614025 20.1908 -42.5011
LeftForeArm  23.4543 -19.147 -4.55677
LeftHand  -0.178211 9.53506 -3.33761
RightShoulder  -0.889144 -6.06303 28.1613
RightArm  11.7063 16.644 46.2473
RightForeArm  10.4183 33.0844 6.74308
RightHand  -0.35828 10.4374 -3.03339
LeftUpLeg  -11.3399 10.7957 -3.58283
LeftLeg  17.4256 6.17483 2.49292
LeftFoot  -2.89555 -0.15105 2.28929
LeftToes  8.91272e-011 -1.70619e-011 7.36378e-012
307
root  83.8425 38.5129 1.53051 -66.3306 -86.2418 63.3183
RightUpLeg  6.54169 -9.73846 -6.85891
RightLeg  12.1363 1.86923 -0.161082
RightFoot  -16.938 -0.0912268 0.480217
RightToes  -2.32831e-009 0 -3.6325e-017
Spine  6.98276 1.83773 11.0557
Spine1  5.05532 4.62885 -9.23254
HEad  -21.7085 24.2712 -9.69068
LeftShoulder1  -0.69942 5.36115 -31.5023
LeftArm  -1.78213 20.9118 -41.7493
LeftForeArm  25.1823 -17.3415 -5.09001
LeftHand  -0.155113 8.96342 -3.31169
RightShoulder  -0.897177 -6.08112 28.2305
RightArm  12.7206 16.4912 46.3643
RightForeArm  10.8768 33.5161 6.83011
RightHand  -0.361701 10.6654 -3.02859
LeftUpLeg  -10.7775 9.55629 -4.27204
LeftLeg  17.3286 6.40071 2.55572
LeftFoot  -4.3851 -0.141112 2.74697
LeftToes  8.91272e-011 -1.70619e-011 7.36378e-012
308
root  83.3511 38.465 1.72689 -57.8667 -84.9975 54.8311
RightUpLeg  7.35305 -9.90507 -8.03759
RightLeg  12.6453 1.00551 -0.406985
RightFoot  -17.698 -0.0486366 1.27419
RightToes  -2.32831e-009 0 -3.6325e-017
Spine  6.15408 1.76756 9.60108
Spine1  5.90122 4.45734 -9.0886
HEad  -21.9382 23.3503 -8.99668
LeftShoulder1  -0.718616 5.40828 -31.5731
LeftArm  -4.62758 20.788 -41.5147
LeftForeArm  27.386 -15.0886 -5.5045
LeftHand  -0.188809 8.6851 -4.75848
RightShoulder  -0.884387 -6.05215 28.1204
RightArm  13.4572 16.1966 46.845
RightForeArm  10.3178 33.0903 6.75028
RightHand  -0.413818 9.95959 -3.5239
LeftUpLeg  -9.90369 8.47359 -5.38495
LeftLeg  17.2255 6.42682 2.54009
LeftFoot  -5.09451 -0.128514 2.9152
LeftToes  8.91272e-011 -1.70619e-011 7.36378e-012
309
root  82.8428 38.4112 1.90184 -56.033 -83.8551 52.8221
RightUpLeg  7.7236 -9.05754 -9.00716
RightLeg  14.2539 -0.394499 -0.815531
RightFoot  -18.3902 0.0150197 2.28018
RightToes  -2.32831e-009 0 -3.6325e-017
Spine  5.95623 1.85597 8.09873
Spine1  6.25581 4.48092 -9.07313
HEad  -22.1934 22.893 -8.57151
LeftShoulder1  -0.768873 5.53377 -31.7166
LeftArm  -6.67997 20.0979 -41.1434
LeftForeArm  28.7353 -12.814 -5.91738
LeftHand  -0.243174 10.1515 -4.3126
RightShoulder  -0.879777 -6.0278 28.2711
RightArm  14.0972 15.2123 47.3367
RightForeArm  9.94757 32.0531 6.50543
RightHand  -0.419095 10.5016 -3.46397
LeftUpLeg  -9.00833 7.82033 -6.46613
LeftLeg  17.5412 6.54756 2.60593
LeftFoot  -5.99415 -0.101199 2.94025
LeftToes  8.91272e-011 -1.70619e-011 7.36378e-012
310
root  82.3416 38.364 2.02928 -61.8376 -83.4438 58.4815
RightUpLeg  7.23367 -6.16047 -9.37373
RightLeg  16.996 -2.65485 -1.36064
RightFoot  -18.6771 0.114844 3.72869
RightToes  -2.32831e-009 0 -3.6325e-017
Spine  6.15873 2.48039 6.93824
Spine1  6.26584 5.12165 -9.64951
HEad  -22.3467 21.7243 -7.93572
LeftShoulder1  -0.715956 5.40028 -31.5969
LeftArm  -6.03835 20.2904 -40.7361
LeftForeArm  29.0661 -12.7563 -6.08817
LeftHand  -0.25757 10.8575 -4.19727
RightShoulder  -0.875456 -6.00406 28.4265
RightArm  15.3929 13.9634 48.0733
RightForeArm  9.46488 29.7238 5.95091
RightHand  -0.359629 10.4303 -3.04456
LeftUpLeg  -7.96224 8.09829 -7.15729
LeftLeg  17.615 6.69132 2.54483
LeftFoot  -7.04222 -0.071036 3.02729
LeftToes  8.91272e-011 -1.70619e-011 7.36378e-012
311
root  81.9054 38.2418 2.16948 -66.1303 -82.9884 62.4819
RightUpLeg  5.76436 -3.61071 -9.90206
RightLeg  21.9607 -4.03055 -1.96357
RightFoot  -19.2198 0.341199 6.8464
RightToes  -2.32831e-009 0 -3.6325e-017
Spine  7.00243 2.9111 5.66008
Spine1  6.18973 5.46653 -10.1168
HEad  -23.0507 20.7987 -8.04486
LeftShoulder1  -0.726336 5.43061 -31.543
LeftArm  -7.00061 20.0858 -40.6121
LeftForeArm  29.0841 -12.3281 -5.99795
LeftHand  -0.219371 12.5332 -2.3537
RightShoulder  -0.895144 -6.06449 28.3758
RightArm  16.8064 12.8751 49.113
RightForeArm  9.02871 27.0985 5.35476
RightHand  -0.225231 10.6999 -2.03559
LeftUpLeg  -7.3052 8.27776 -7.81357
LeftLeg  18.6162 6.84111 2.57788
LeftFoot  -8.51004 -0.0251777 3.07765
LeftToes  8.91272e-011 -1.70619e-011 7.36378e-012
312
root  81.502 38.1264 2.33303 -62.3911 -82.1596 58.5542
RightUpLeg  3.21186 -3.85894 -11.0307
RightLeg  29.1116 -3.12794 -2.09816
RightFoot  -18.5029 0.576124 11.3023
RightToes  -2.32831e-009 0 -3.6325e-017
Spine  7.17255 2.985 4.19382
Spine1  6.86128 5.25479 -9.5981
HEad  -23.769 20.0139 -8.57259
LeftShoulder1  -0.691684 5.32792 -31.7651
LeftArm  -6.30958 19.5898 -40.4789
LeftForeArm  29.0202 -12.9453 -5.94981
LeftHand  -0.222961 10.9075 -3.26528
RightShoulder  -0.864947 -5.97822 28.363
RightArm  18.078 12.003 49.7877
RightForeArm  6.87233 24.2054 4.8287
RightHand  -0.293912 10.4507 -2.56421
LeftUpLeg  -6.8086 7.81189 -8.46638
LeftLeg  19.5242 6.55728 2.48841
LeftFoot  -9.79234 0.0193481 2.93616
LeftToes  8.91272e-011 -1.70619e-011 7.36378e-012
313
root  81.0796 38.0079 2.47671 -61.1362 -81.4948 57.4403
RightUpLeg  -0.643567 -4.34466 -12.2677
RightLeg  37.4224 -1.90359 -1.82569
RightFoot  -15.6968 0.44456 14.431
RightToes  -2.32831e-009 0 -3.6325e-017
Spine  6.93027 3.04555 2.65552
Spine1  7.7904 5.04399 -9.18664
HEad  -24.7119 19.545 -9.15161
LeftShoulder1  -0.721847 5.41678 -31.5767
LeftArm  -5.71386 18.9625 -41.0327
LeftForeArm  28.0766 -13.8876 -5.78206
LeftHand  -0.22435 11.4879 -2.93322
RightShoulder  -0.887732 -6.02872 28.5756
RightArm  18.6173 10.946 50.3463
RightForeArm  5.95107 22.1463 4.57986
RightHand  -0.35506 10.0935 -3.06432
LeftUpLeg  -6.62045 7.54817 -9.0856
LeftLeg  20.3875 6.38524 2.37981
LeftFoot  -11.0288 0.0583634 2.92481
LeftToes  8.91272e-011 -1.70619e-011 7.36378e-012
314
root  80.6385 37.9503 2.57328 -62.2818 -81.267 58.4155
RightUpLeg  -5.01771 -4.23815 -12.9379
RightLeg  45.8747 -1.22902 -1.68947
RightFoot  -9.72007 -0.20089 12.4266
RightToes  -2.32831e-009 0 -3.6325e-017
Spine  7.93365 3.28131 0.833422
Spine1  7.22936 4.77162 -7.85539
HEad  -25.2785 19.5183 -9.59987
LeftShoulder1  -0.720351 5.40823 -31.6689
LeftArm  -4.54446 18.8621 -40.9377
LeftForeArm  25.8527 -15.2815 -5.48202
LeftHand  -0.197583 10.6657 -2.97456
RightShoulder  -0.898514 -6.04814 28.7325
RightArm  17.3169 9.06682 50.4979
RightForeArm  7.03011 21.0153 4.5138
RightHand  -0.209921 10.4369 -1.94565
LeftUpLeg  -5.74521 7.84481 -9.22487
LeftLeg  20.628 6.19737 2.11282
LeftFoot  -12.0151 0.0887084 2.82956
LeftToes  8.91272e-011 -1.70619e-011 7.36378e-012
315
root  80.1732 37.8808 2.64088 -61.2925 -80.7864 57.1895
RightUpLeg  -9.17988 -4.782 -13.5559
RightLeg  53.0435 -0.597966 -1.20213
RightFoot  -3.85209 -0.558901 7.76625
RightToes  -2.32831e-009 0 -3.6325e-017
Spine  8.4391 3.22862 -0.978565
Spine1  7.52187 4.28861 -6.65193
HEad  -26.0414 19.0705 -9.83181
LeftShoulder1  -0.721389 5.4221 -31.4487
LeftArm  -2.25037 18.1173 -40.8612
LeftForeArm  24.0981 -16.8906 -5.23389
LeftHand  -0.147244 8.71846 -3.23263
RightShoulder  -0.958557 -6.18951 29.1257
RightArm  15.6569 6.84507 50.3406
RightForeArm  6.75724 22.2571 4.53079
RightHand  -0.174294 10.2725 -1.69812
LeftUpLeg  -4.8117 8.06389 -9.39797
LeftLeg  20.9522 5.63494 1.8602
LeftFoot  -13.0679 0.117474 2.59041
LeftToes  8.91272e-011 -1.70619e-011 7.36378e-012
316
root  79.7006 37.8041 2.70595 -57.8653 -80.2914 53.8032
RightUpLeg  -12.5065 -5.90593 -14.0562
RightLeg  56.7737 0.988054 1.18191
RightFoot  -3.60101 -0.546644 7.72627
RightToes  -2.32831e-009 0 -3.6325e-017
Spine  8.8121 2.94447 -2.50082
Spine1  7.61384 3.57394 -5.55346
HEad  -26.7999 18.6399 -9.93452
LeftShoulder1  -0.723844 5.42468 -31.5231
LeftArm  -1.42371 16.7985 -40.6092
LeftForeArm  23.7465 -17.5606 -5.07059
LeftHand  -0.133493 8.91199 -2.70284
RightShoulder  -1.02343 -6.33567 29.5953
RightArm  13.4202 4.18181 49.7285
RightForeArm  5.82418 24.0466 4.83206
RightHand  -0.259657 10.9748 -2.25546
LeftUpLeg  -4.34502 7.68415 -9.54008
LeftLeg  21.598 5.24116 1.86356
LeftFoot  -14.1545 0.145131 2.43855
LeftToes  8.91272e-011 -1.70619e-011 7.36378e-012
317
root  79.1722 37.7959 2.72857 -56.8335 -80.8126 53.0366
RightUpLeg  -15.6657 -6.08584 -13.4629
RightLeg  57.1217 2.2383 3.2852
RightFoot  -4.62454 -0.588711 9.46677
RightToes  -2.32831e-009 0 -3.6325e-017
Spine  9.22359 2.8034 -3.0801
Spine1  7.13174 3.20039 -4.91429
HEad  -27.5513 18.433 -10.2962
LeftShoulder1  -0.769506 5.53455 -31.7353
LeftArm  -0.730066 15.7997 -40.0723
LeftForeArm  21.9912 -18.5522 -4.7872
LeftHand  -0.156817 10.3197 -2.2342
RightShoulder  -1.04354 -6.38441 29.6855
RightArm  11.9571 1.60302 49.4321
RightForeArm  6.2755 26.0441 5.26277
RightHand  -0.29103 11.3111 -2.43774
LeftUpLeg  -3.89925 7.85079 -8.84509
LeftLeg  21.9966 5.14086 1.8495
LeftFoot  -15.0376 0.167348 2.3932
LeftToes  8.91272e-011 -1.70619e-011 7.36378e-012
